# xmcd
#
# Track frame offsets:
#	150
#	13512
#	24570
#	41417
#	56842
#	71697
#	84107
#	94830
#	107870
#	122272
#
# Disc length: 1882 seconds
#
# Revision: 0
# Processed by: cddbd v1.5.2PL0 Copyright (c) Steve Scherf et al.
# Submitted via: EasyCDDAExtractor 12.0.0.1
#
DISCID=7507580a
DTITLE=Bourvil - Amicalement votre
DYEAR=1900
DGENRE=
TTITLE0=Ballade Irlandaise
TTITLE1=Papa joue du trambone
TTITLE2=Mon frère d'Angleterre
TTITLE3=La mandoline
TTITLE4=Salade de fruit
TTITLE5=La tactique du gendarme
TTITLE6=Ma p'tite chanson
TTITLE7=C'est l'piston
TTITLE8=Le voyage de noces
TTITLE9=Les crayons
EXTD=
EXTT0=
EXTT1=
EXTT2=
EXTT3=
EXTT4=
EXTT5=
EXTT6=
EXTT7=
EXTT8=
EXTT9=
PLAYORDER=
